# xmcd
#
# Track frame offsets: 
#        150
#        30049
#        59588
#        94038
#        130199
#        164751
#        194416
#        224619
#        262800
#        289096
#
# Disc length: 4351 seconds
#
# Revision: 0
# Processed by: cddbd v1.5.2PL0 Copyright (c) Steve Scherf et al.
# Submitted via: ExactAudioCopy v0.99pb5
#
DISCID=9110fd0a
DTITLE=Various Artist - Remixed SuSU 2 [CD 1)
DYEAR=2006
DGENRE=House
TTITLE0=Rosie Gaines - Closer Than Close (MK Vocal Re-Spray)
TTITLE1=Solitaire - You Got The Love (MW's Kidology Mix)
TTITLE2=Donatella Movement - Love Can Be (Loop Da Funk Mix)
TTITLE3=Morris T and Fjrmo - Let Me Be (Problem Kid Vocal Mix)
TTITLE4=Mama Razzi - As I Kiss You (Mac Quayle Club Vocal Mix)
TTITLE5=The 10th Planet - Strings Of Life (Octave One Remix)
TTITLE6=Octave One - Somedays (Gerald Mitchell Of Los Hermanos Remix)
TTITLE7=K-Klass - Dance With Me (DJ Spen And The Muthafunkaz Mix)
TTITLE8=Afro Angel - Magic (G&G Remix)
TTITLE9=Blaze Presents UDA - Spread Love (Will Milton Remix)
EXTD=
EXTT0=
EXTT1=
EXTT2=
EXTT3=
EXTT4=
EXTT5=
EXTT6=
EXTT7=
EXTT8=
EXTT9=
PLAYORDER=
